
<svg xmlns="http://www.w3.org/2000/svg" viewBox="0 0 24 24" fill="none" stroke="currentColor" stroke-width="2" stroke-linecap="round" stroke-linejoin="round">
  <defs>
    <linearGradient id="gradientFill" x1="0%" y1="0%" x2="100%" y2="100%">
      <stop offset="0%" stop-color="#0EA5E9" />
      <stop offset="100%" stop-color="#38BDF8" />
    </linearGradient>
  </defs>
  <path d="M9.5 2a2.5 2.5 0 1 1 0 5 2.5 2.5 0 0 1 0-5Z" fill="url(#gradientFill)"/>
  <path d="M14.5 2a2.5 2.5 0 1 0 0 5 2.5 2.5 0 0 0 0-5Z" fill="url(#gradientFill)"/>
  <path d="M3 7v9a6 6 0 0 0 6 6h6a6 6 0 0 0 6-6V7" fill="url(#gradientFill)" opacity="0.2"/>
  <path d="M13.4 22H12a2 2 0 0 1-2-2v-5.5"/>
  <path d="M3 11h3l1-1.5"/>
  <path d="M9 5.5V7a2 2 0 0 0 2 2h2a2 2 0 0 0 2-2v-.5"/>
  <path d="M12 17v-2.3"/>
  <path d="M21 11h-3l-1-1.5"/>
  <path d="M12 13.5V16"/>
</svg>
